<svg xmlns="http://www.w3.org/2000/svg" viewBox="0 0 900 1200" preserveAspectRatio="xMidYMid meet" role="img" aria-labelledby="v16a-title v16a-desc">
  <title id="v16a-title">AAR na menina — comparativo sagital dos três principais subtipos</title>
  <desc id="v16a-desc">Três painéis empilhados em corte sagital esquemático da pelve neonatal feminina, mostrando os três principais subtipos de anomalia anorretal: (A) fístula perineal — trato fistuloso baixo entre reto e períneo cutâneo, com ânus ectópico externo ao introito vaginal; (B) fístula vestibular — abertura retal no vestíbulo vaginal, entre uretra e fôrnice vaginal posterior, padrão mais comum na menina; (C) cloaca persistente — reto, vagina e uretra confluindo em canal comum único antes de uma única abertura perineal externa, defeito mais complexo da cirurgia pediátrica neonatal. Cada painel marca a posição anatômica do ânus (estrela), uretra (losango) e vagina (círculo) e identifica estruturas-chave (bexiga, útero, reto, sínfise púbica, sacro, períneo).</desc>

  <defs>
    <radialGradient id="v16a-bg" cx="50%" cy="40%" r="90%">
      <stop offset="0%" stop-color="#142838"/>
      <stop offset="60%" stop-color="#0f1f2c"/>
      <stop offset="100%" stop-color="#0a1620"/>
    </radialGradient>
    <linearGradient id="v16a-bladder" x1="0" y1="0" x2="0" y2="1">
      <stop offset="0%" stop-color="rgba(108,180,232,0.42)"/>
      <stop offset="100%" stop-color="rgba(108,180,232,0.16)"/>
    </linearGradient>
    <linearGradient id="v16a-uterus" x1="0" y1="0" x2="0" y2="1">
      <stop offset="0%" stop-color="rgba(255,138,122,0.36)"/>
      <stop offset="100%" stop-color="rgba(255,138,122,0.16)"/>
    </linearGradient>
    <linearGradient id="v16a-rectum" x1="0" y1="0" x2="0" y2="1">
      <stop offset="0%" stop-color="rgba(163,94,68,0.55)"/>
      <stop offset="100%" stop-color="rgba(92,47,31,0.55)"/>
    </linearGradient>
    <linearGradient id="v16a-bone" x1="0" y1="0" x2="0" y2="1">
      <stop offset="0%" stop-color="rgba(243,237,224,0.30)"/>
      <stop offset="100%" stop-color="rgba(243,237,224,0.14)"/>
    </linearGradient>
    <linearGradient id="v16a-skin" x1="0" y1="0" x2="0" y2="1">
      <stop offset="0%" stop-color="#dcb88c"/>
      <stop offset="100%" stop-color="#b48d5e"/>
    </linearGradient>
    <marker id="v16a-arrow" viewBox="0 0 10 10" refX="9" refY="5" markerWidth="6" markerHeight="6" orient="auto-start-reverse">
      <path d="M 0 0 L 10 5 L 0 10 z" fill="#f0b440"/>
    </marker>
    <marker id="v16a-arrow-coral" viewBox="0 0 10 10" refX="9" refY="5" markerWidth="6" markerHeight="6" orient="auto-start-reverse">
      <path d="M 0 0 L 10 5 L 0 10 z" fill="#ff6b5a"/>
    </marker>
    <marker id="v16a-arrow-danger" viewBox="0 0 10 10" refX="9" refY="5" markerWidth="6" markerHeight="6" orient="auto-start-reverse">
      <path d="M 0 0 L 10 5 L 0 10 z" fill="#ff5d6b"/>
    </marker>
  </defs>

  <rect width="900" height="1200" fill="url(#v16a-bg)"/>

  <!-- Título global -->
  <text x="450" y="44" text-anchor="middle" font-family="Lora, Georgia, serif" font-size="22" font-weight="700" fill="#f3ede0">AAR na menina — três subtipos em corte sagital</text>
  <text x="450" y="68" text-anchor="middle" font-family="Inter, sans-serif" font-size="13" fill="#c3bcae">Legenda anatômica: ★ ânus · ◆ uretra · ● vagina</text>

  <!-- ===================================================== -->
  <!-- PAINEL A — FÍSTULA PERINEAL (cutânea)                  -->
  <!-- ===================================================== -->
  <g transform="translate(0, 90)">
    <rect x="40" y="0" width="820" height="340" rx="16" fill="rgba(20,40,56,0.45)" stroke="rgba(243,237,224,0.10)" stroke-width="1"/>

    <!-- header do painel -->
    <text x="60" y="34" font-family="Lora, Georgia, serif" font-size="20" font-weight="700" fill="#5fcf80">A · Fístula perineal (cutânea)</text>
    <text x="60" y="56" font-family="Inter, sans-serif" font-size="12" fill="#c3bcae">Defeito BAIXO · reparo primário · ânus ectópico externo ao introito vaginal</text>

    <!-- corte sagital esquemático -->
    <g transform="translate(140, 80)">
      <!-- referência óssea: sínfise púbica (esquerda/anterior) e sacro+cóccix (direita/posterior) -->
      <path d="M 70 110 Q 60 130, 70 160 L 90 160 Q 90 130, 90 110 Z" fill="url(#v16a-bone)" stroke="rgba(243,237,224,0.45)" stroke-width="1"/>
      <text x="50" y="105" font-family="Inter, sans-serif" font-size="10" fill="#c3bcae">sínfise púbica</text>

      <path d="M 380 60 Q 410 110, 410 165 Q 405 195, 395 215 L 380 215 Q 375 195, 375 165 Q 372 110, 360 70 Z"
            fill="url(#v16a-bone)" stroke="rgba(243,237,224,0.45)" stroke-width="1"/>
      <text x="400" y="55" font-family="Inter, sans-serif" font-size="10" fill="#c3bcae">sacro</text>
      <text x="395" y="232" font-family="Inter, sans-serif" font-size="10" fill="#c3bcae">cóccix</text>

      <!-- BEXIGA (anterior, superior) -->
      <ellipse cx="140" cy="95" rx="55" ry="42" fill="url(#v16a-bladder)" stroke="rgba(108,180,232,0.65)" stroke-width="1.4"/>
      <text x="140" y="98" text-anchor="middle" font-family="Inter, sans-serif" font-size="11" font-weight="600" fill="#6cb4e8">bexiga</text>

      <!-- ÚTERO + VAGINA (médio) -->
      <path d="M 200 105 Q 210 95, 225 100 Q 235 108, 232 130 L 220 165 Q 215 195, 220 215 L 240 215 Q 248 195, 245 160 Q 250 110, 255 100 Q 240 90, 200 105 Z"
            fill="url(#v16a-uterus)" stroke="rgba(255,138,122,0.65)" stroke-width="1.4"/>
      <text x="215" y="118" font-family="Inter, sans-serif" font-size="10" font-weight="600" fill="#ff8a7a">útero</text>
      <text x="226" y="180" font-family="Inter, sans-serif" font-size="10" font-weight="600" fill="#ff8a7a">vagina</text>

      <!-- RETO + COLÓN (posterior, descendo até esfíncter) -->
      <path d="M 300 70 Q 295 110, 295 150 Q 295 185, 300 215 L 335 215 Q 340 185, 340 150 Q 340 110, 335 70 Z"
            fill="url(#v16a-rectum)" stroke="rgba(243,237,224,0.45)" stroke-width="1.4"/>
      <text x="318" y="140" text-anchor="middle" font-family="Inter, sans-serif" font-size="10" font-weight="600" fill="#e7e0d0">reto</text>

      <!-- PERÍNEO (linha cutânea inferior) -->
      <path d="M 60 230 Q 200 240, 410 230" stroke="url(#v16a-skin)" stroke-width="3" fill="none" stroke-linecap="round"/>
      <text x="60" y="252" font-family="Inter, sans-serif" font-size="10" fill="#dcb88c">períneo</text>

      <!-- introito vaginal (posição esperada) -->
      <circle cx="230" cy="232" r="4" fill="#ff8a7a"/>

      <!-- FÍSTULA PERINEAL: trato baixo do reto descendo até pele POSTERIORMENTE ao introito vaginal -->
      <path d="M 318 215 Q 322 220, 320 232" stroke="#f0b440" stroke-width="3.2" fill="none" stroke-linecap="round"/>
      <!-- ânus ectópico no períneo, posterior ao introito -->
      <g transform="translate(320, 232)">
        <polygon points="0,-9 2.6,-2.8 9,-2.8 4,2 6,9 0,5 -6,9 -4,2 -9,-2.8 -2.6,-2.8" fill="#f0b440" stroke="#0a1620" stroke-width="0.6"/>
      </g>

      <!-- losango uretra (acima do introito) -->
      <g transform="translate(190, 228)">
        <polygon points="0,-7 7,0 0,7 -7,0" fill="#6cb4e8" stroke="#0a1620" stroke-width="0.6"/>
      </g>
    </g>

    <!-- labels técnicas direita -->
    <g transform="translate(620, 110)">
      <line x1="-60" y1="20" x2="-180" y2="40" stroke="#f0b440" stroke-width="1.4" marker-end="url(#v16a-arrow)"/>
      <rect x="0" y="0" width="220" height="46" rx="8" fill="rgba(240,180,64,0.14)" stroke="rgba(240,180,64,0.55)" stroke-width="1"/>
      <text x="14" y="20" font-family="Inter, sans-serif" font-size="13" font-weight="700" fill="#f0b440">Trato perineal baixo</text>
      <text x="14" y="38" font-family="Inter, sans-serif" font-size="11" fill="#e7e0d0">reto desce até a pele — ânus ectópico</text>
    </g>
    <g transform="translate(620, 180)">
      <line x1="-30" y1="20" x2="-110" y2="50" stroke="#5fcf80" stroke-width="1.4" marker-end="url(#v16a-arrow)"/>
      <rect x="0" y="0" width="220" height="46" rx="8" fill="rgba(95,207,128,0.14)" stroke="rgba(95,207,128,0.45)" stroke-width="1"/>
      <text x="14" y="20" font-family="Inter, sans-serif" font-size="13" font-weight="700" fill="#5fcf80">Ânus externo ao introito</text>
      <text x="14" y="38" font-family="Inter, sans-serif" font-size="11" fill="#e7e0d0">posterior à vulva, na pele do períneo</text>
    </g>
    <g transform="translate(620, 250)">
      <rect x="0" y="0" width="220" height="64" rx="8" fill="rgba(95,207,128,0.10)" stroke="rgba(95,207,128,0.40)" stroke-width="1"/>
      <text x="14" y="22" font-family="Inter, sans-serif" font-size="12" font-weight="700" fill="#5fcf80">Conduta</text>
      <text x="14" y="42" font-family="Inter, sans-serif" font-size="11" fill="#e7e0d0">Anorretoplastia perineal</text>
      <text x="14" y="58" font-family="Inter, sans-serif" font-size="11" fill="#e7e0d0">primária (sem colostomia)</text>
    </g>
  </g>

  <!-- ===================================================== -->
  <!-- PAINEL B — FÍSTULA VESTIBULAR (mais comum na menina)   -->
  <!-- ===================================================== -->
  <g transform="translate(0, 460)">
    <rect x="40" y="0" width="820" height="340" rx="16" fill="rgba(20,40,56,0.45)" stroke="rgba(255,107,90,0.22)" stroke-width="1.4"/>

    <text x="60" y="34" font-family="Lora, Georgia, serif" font-size="20" font-weight="700" fill="#ff6b5a">B · Fístula vestibular — MAIS COMUM na menina</text>
    <text x="60" y="56" font-family="Inter, sans-serif" font-size="12" fill="#c3bcae">Defeito BAIXO · reparo primário · abertura retal DENTRO do vestíbulo vaginal posterior</text>

    <g transform="translate(140, 80)">
      <!-- referência óssea -->
      <path d="M 70 110 Q 60 130, 70 160 L 90 160 Q 90 130, 90 110 Z" fill="url(#v16a-bone)" stroke="rgba(243,237,224,0.45)" stroke-width="1"/>
      <text x="50" y="105" font-family="Inter, sans-serif" font-size="10" fill="#c3bcae">sínfise púbica</text>
      <path d="M 380 60 Q 410 110, 410 165 Q 405 195, 395 215 L 380 215 Q 375 195, 375 165 Q 372 110, 360 70 Z"
            fill="url(#v16a-bone)" stroke="rgba(243,237,224,0.45)" stroke-width="1"/>
      <text x="400" y="55" font-family="Inter, sans-serif" font-size="10" fill="#c3bcae">sacro</text>

      <!-- bexiga -->
      <ellipse cx="140" cy="95" rx="55" ry="42" fill="url(#v16a-bladder)" stroke="rgba(108,180,232,0.65)" stroke-width="1.4"/>
      <text x="140" y="98" text-anchor="middle" font-family="Inter, sans-serif" font-size="11" font-weight="600" fill="#6cb4e8">bexiga</text>

      <!-- útero+vagina -->
      <path d="M 200 105 Q 210 95, 225 100 Q 235 108, 232 130 L 220 165 Q 215 195, 220 215 L 240 215 Q 248 195, 245 160 Q 250 110, 255 100 Q 240 90, 200 105 Z"
            fill="url(#v16a-uterus)" stroke="rgba(255,138,122,0.65)" stroke-width="1.4"/>
      <text x="215" y="118" font-family="Inter, sans-serif" font-size="10" font-weight="600" fill="#ff8a7a">útero</text>
      <text x="226" y="180" font-family="Inter, sans-serif" font-size="10" font-weight="600" fill="#ff8a7a">vagina</text>

      <!-- reto descendo mas terminando mais alto (fístula curva pra vestíbulo) -->
      <path d="M 300 70 Q 295 110, 295 150 Q 295 175, 298 195 Q 290 205, 270 210 Z"
            fill="url(#v16a-rectum)" stroke="rgba(243,237,224,0.45)" stroke-width="1.4"/>
      <text x="320" y="140" text-anchor="middle" font-family="Inter, sans-serif" font-size="10" font-weight="600" fill="#e7e0d0">reto</text>

      <!-- TRATO FISTULOSO: do reto baixo se conectando ao vestíbulo posterior (entre uretra e fôrnice posterior da vagina) -->
      <path d="M 270 210 Q 250 222, 235 232" stroke="#ff6b5a" stroke-width="3.6" fill="none" stroke-linecap="round" stroke-dasharray="0"/>

      <!-- períneo -->
      <path d="M 60 230 Q 200 240, 410 230" stroke="url(#v16a-skin)" stroke-width="3" fill="none" stroke-linecap="round"/>
      <text x="60" y="252" font-family="Inter, sans-serif" font-size="10" fill="#dcb88c">períneo</text>

      <!-- vestíbulo vaginal aprofundado -->
      <ellipse cx="220" cy="232" rx="22" ry="6" fill="rgba(255,107,90,0.18)" stroke="rgba(255,107,90,0.55)" stroke-width="1.2"/>
      <text x="220" y="266" text-anchor="middle" font-family="Inter, sans-serif" font-size="10" font-weight="600" fill="#ff6b5a">vestíbulo vaginal</text>

      <!-- 3 orifícios visíveis no vestíbulo (anterior→posterior): uretra (◆), vagina (●), fístula (★) -->
      <g transform="translate(204, 232)">
        <polygon points="0,-6 6,0 0,6 -6,0" fill="#6cb4e8" stroke="#0a1620" stroke-width="0.6"/>
      </g>
      <g transform="translate(220, 232)">
        <circle r="5.4" fill="#ff8a7a" stroke="#0a1620" stroke-width="0.6"/>
      </g>
      <g transform="translate(236, 232)">
        <polygon points="0,-8 2.4,-2.5 8,-2.5 3.5,1.5 5.4,8 0,4.5 -5.4,8 -3.5,1.5 -8,-2.5 -2.4,-2.5" fill="#ff6b5a" stroke="#0a1620" stroke-width="0.6"/>
      </g>
    </g>

    <g transform="translate(620, 100)">
      <line x1="-50" y1="20" x2="-150" y2="40" stroke="#ff6b5a" stroke-width="1.4" marker-end="url(#v16a-arrow-coral)"/>
      <rect x="0" y="0" width="220" height="46" rx="8" fill="rgba(255,107,90,0.16)" stroke="rgba(255,107,90,0.55)" stroke-width="1"/>
      <text x="14" y="20" font-family="Inter, sans-serif" font-size="13" font-weight="700" fill="#ff6b5a">Trato fistuloso vestibular</text>
      <text x="14" y="38" font-family="Inter, sans-serif" font-size="11" fill="#e7e0d0">reto → fôrnice posterior do vestíbulo</text>
    </g>
    <g transform="translate(620, 170)">
      <line x1="-50" y1="20" x2="-150" y2="60" stroke="#ff6b5a" stroke-width="1.4" marker-end="url(#v16a-arrow-coral)"/>
      <rect x="0" y="0" width="220" height="62" rx="8" fill="rgba(255,107,90,0.16)" stroke="rgba(255,107,90,0.55)" stroke-width="1"/>
      <text x="14" y="20" font-family="Inter, sans-serif" font-size="13" font-weight="700" fill="#ff6b5a">Tríade orificial</text>
      <text x="14" y="38" font-family="Inter, sans-serif" font-size="11" fill="#e7e0d0">◆ uretra · ● vagina · ★ fístula retal</text>
      <text x="14" y="55" font-family="Inter, sans-serif" font-size="11" fill="#e7e0d0">vistos no mesmo vestíbulo</text>
    </g>
    <g transform="translate(620, 250)">
      <rect x="0" y="0" width="220" height="64" rx="8" fill="rgba(95,207,128,0.10)" stroke="rgba(95,207,128,0.40)" stroke-width="1"/>
      <text x="14" y="22" font-family="Inter, sans-serif" font-size="12" font-weight="700" fill="#5fcf80">Conduta</text>
      <text x="14" y="42" font-family="Inter, sans-serif" font-size="11" fill="#e7e0d0">Anorretoplastia sagital</text>
      <text x="14" y="58" font-family="Inter, sans-serif" font-size="11" fill="#e7e0d0">posterior primária (PSARP)</text>
    </g>
  </g>

  <!-- ===================================================== -->
  <!-- PAINEL C — CLOACA PERSISTENTE (mais complexa)          -->
  <!-- ===================================================== -->
  <g transform="translate(0, 830)">
    <rect x="40" y="0" width="820" height="340" rx="16" fill="rgba(20,40,56,0.45)" stroke="rgba(255,93,107,0.30)" stroke-width="1.4"/>

    <text x="60" y="34" font-family="Lora, Georgia, serif" font-size="20" font-weight="700" fill="#ff5d6b">C · Cloaca persistente — defeito mais COMPLEXO</text>
    <text x="60" y="56" font-family="Inter, sans-serif" font-size="12" fill="#c3bcae">Reto + vagina + uretra fundidos em canal comum único · colostomia inicial + reparo multitemporal</text>

    <g transform="translate(140, 80)">
      <!-- referência óssea -->
      <path d="M 70 110 Q 60 130, 70 160 L 90 160 Q 90 130, 90 110 Z" fill="url(#v16a-bone)" stroke="rgba(243,237,224,0.45)" stroke-width="1"/>
      <text x="50" y="105" font-family="Inter, sans-serif" font-size="10" fill="#c3bcae">sínfise púbica</text>
      <path d="M 380 60 Q 410 110, 410 165 Q 405 195, 395 215 L 380 215 Q 375 195, 375 165 Q 372 110, 360 70 Z"
            fill="url(#v16a-bone)" stroke="rgba(243,237,224,0.45)" stroke-width="1"/>
      <text x="400" y="55" font-family="Inter, sans-serif" font-size="10" fill="#c3bcae">sacro</text>

      <!-- bexiga -->
      <ellipse cx="140" cy="95" rx="55" ry="42" fill="url(#v16a-bladder)" stroke="rgba(108,180,232,0.65)" stroke-width="1.4"/>
      <text x="140" y="98" text-anchor="middle" font-family="Inter, sans-serif" font-size="11" font-weight="600" fill="#6cb4e8">bexiga</text>

      <!-- útero (separado) -->
      <path d="M 205 105 Q 215 95, 230 100 Q 240 108, 237 130 Q 235 145, 230 160 L 215 160 Q 212 140, 210 125 Q 205 110, 205 105 Z"
            fill="url(#v16a-uterus)" stroke="rgba(255,138,122,0.65)" stroke-width="1.4"/>
      <text x="218" y="120" font-family="Inter, sans-serif" font-size="10" font-weight="600" fill="#ff8a7a">útero</text>

      <!-- vagina e reto convergindo para o canal comum -->
      <!-- vagina (terço médio) -->
      <path d="M 215 160 Q 218 175, 220 188" stroke="rgba(255,138,122,0.85)" stroke-width="6" fill="none" stroke-linecap="round"/>
      <text x="180" y="178" font-family="Inter, sans-serif" font-size="10" font-weight="600" fill="#ff8a7a">vagina</text>
      <!-- uretra (anterior, curta — vinda da bexiga ao canal comum) -->
      <path d="M 165 135 Q 185 160, 210 188" stroke="rgba(108,180,232,0.85)" stroke-width="5" fill="none" stroke-linecap="round"/>
      <text x="145" y="170" font-family="Inter, sans-serif" font-size="10" font-weight="600" fill="#6cb4e8">uretra</text>
      <!-- reto (posterior) -->
      <path d="M 300 70 Q 295 110, 295 150 Q 290 175, 250 195" stroke="rgba(163,94,68,0.95)" stroke-width="6" fill="none" stroke-linecap="round"/>
      <text x="318" y="140" text-anchor="middle" font-family="Inter, sans-serif" font-size="10" font-weight="600" fill="#e7e0d0">reto</text>

      <!-- CANAL COMUM (confluência dos 3) -->
      <path d="M 200 190 Q 210 205, 215 220 L 240 220 Q 245 205, 255 195 Q 230 182, 200 190 Z"
            fill="rgba(255,93,107,0.32)" stroke="rgba(255,93,107,0.85)" stroke-width="1.6"/>
      <text x="280" y="208" font-family="Inter, sans-serif" font-size="11" font-weight="700" fill="#ff5d6b">canal comum</text>

      <!-- períneo -->
      <path d="M 60 230 Q 200 240, 410 230" stroke="url(#v16a-skin)" stroke-width="3" fill="none" stroke-linecap="round"/>
      <text x="60" y="252" font-family="Inter, sans-serif" font-size="10" fill="#dcb88c">períneo</text>

      <!-- ABERTURA ÚNICA EXTERNA -->
      <circle cx="228" cy="232" r="6.5" fill="#ff5d6b" stroke="#0a1620" stroke-width="0.8"/>
      <text x="228" y="266" text-anchor="middle" font-family="Inter, sans-serif" font-size="11" font-weight="700" fill="#ff5d6b">abertura ÚNICA</text>
    </g>

    <g transform="translate(620, 100)">
      <line x1="-50" y1="20" x2="-160" y2="80" stroke="#ff5d6b" stroke-width="1.4" marker-end="url(#v16a-arrow-danger)"/>
      <rect x="0" y="0" width="220" height="64" rx="8" fill="rgba(255,93,107,0.16)" stroke="rgba(255,93,107,0.55)" stroke-width="1"/>
      <text x="14" y="22" font-family="Inter, sans-serif" font-size="13" font-weight="700" fill="#ff5d6b">Canal comum único</text>
      <text x="14" y="40" font-family="Inter, sans-serif" font-size="11" fill="#e7e0d0">reto + vagina + uretra confluem</text>
      <text x="14" y="56" font-family="Inter, sans-serif" font-size="11" fill="#e7e0d0">antes da abertura perineal</text>
    </g>
    <g transform="translate(620, 184)">
      <line x1="-50" y1="20" x2="-160" y2="50" stroke="#ff5d6b" stroke-width="1.4" marker-end="url(#v16a-arrow-danger)"/>
      <rect x="0" y="0" width="220" height="58" rx="8" fill="rgba(255,93,107,0.16)" stroke="rgba(255,93,107,0.55)" stroke-width="1"/>
      <text x="14" y="22" font-family="Inter, sans-serif" font-size="13" font-weight="700" fill="#ff5d6b">Abertura única externa</text>
      <text x="14" y="40" font-family="Inter, sans-serif" font-size="11" fill="#e7e0d0">um só orifício perineal</text>
      <text x="14" y="54" font-family="Inter, sans-serif" font-size="11" fill="#e7e0d0">(× tríade da vestibular)</text>
    </g>
    <g transform="translate(620, 260)">
      <rect x="0" y="0" width="220" height="60" rx="8" fill="rgba(255,93,107,0.10)" stroke="rgba(255,93,107,0.45)" stroke-width="1"/>
      <text x="14" y="22" font-family="Inter, sans-serif" font-size="12" font-weight="700" fill="#ff5d6b">Conduta</text>
      <text x="14" y="40" font-family="Inter, sans-serif" font-size="11" fill="#e7e0d0">Colostomia inicial +</text>
      <text x="14" y="54" font-family="Inter, sans-serif" font-size="11" fill="#e7e0d0">reparo multitemporal</text>
    </g>

    <!-- nota canal comum <3 cm vs >3 cm -->
    <g transform="translate(60, 308)">
      <text x="0" y="0" font-family="Inter, sans-serif" font-size="10" font-style="italic" fill="#c3bcae">Canal comum &lt; 3 cm → cloaca simples (prognóstico melhor) · &gt; 3 cm → cloaca complexa (prognóstico reservado)</text>
    </g>
  </g>

  <!-- Footer Bauer -->
  <text x="40" y="1188" font-family="Inter, sans-serif" font-size="10" fill="#8a8678">
    Ilustração esquemática autoral Bauer Neonatologia · 2026
  </text>
</svg>
